{"title":"Daredevil Season 2 (S02) Complete HEVC 720p Download","uid":13939609,"size":2566343993,"categoryP":"video","categoryS":"tv_shows","magnet":"?xt=urn:btih:9b13065a46e1c0034a9f3954c139fe71f16ceaba&amp;dn=Daredevil+Season+2+%28S02%29+Complete+HEVC+720p+Download&amp;tr=udp%3A%2F%2Ftracker.leechers-paradise.org%3A6969&amp;tr=udp%3A%2F%2Fzer0day.ch%3A1337&amp;tr=udp%3A%2F%2Fopen.demonii.com%3A1337&amp;tr=udp%3A%2F%2Ftracker.coppersurfer.tk%3A6969&amp;tr=udp%3A%2F%2Fexodus.desync.com%3A6969","seeders":5,"leechers":4,"uploader":"GamePersia","files":13,"time":1458458847,"description":"Daredevil Season 2 (S02) Complete HEVC 720p Download\r\n \nhttp://s12.postimg.org/n2h1z0664/daredevil_season_2.jpg\r\n\r\n[b]Genres:[/b] Action | Crime | Drama\r\nAs a child Matt Murdock was blinded by a chemical spill in a freak accident. Instead of limiting him it gave him superhuman senses that enabled him to see the world in a unique and powerful way. Now he uses these powers to deliver justice, not only as a lawyer in his own law firm, but also as vigilante at night, stalking the streets of Hell's Kitchen as Daredevil, the man without fear.\r\n\r\n[b]General[/b]\r\nFormat                                   : Matroska\r\nFormat version                           : Version 4 / Version 2\r\nDuration                                 : 48mn 5s\r\nOverall bit rate                         : 649 Kbps\r\n\r\n[b]Video[/b]\r\nID                                       : 1\r\nFormat                                   : HEVC\r\nFormat/Info                              : High Efficiency Video Coding\r\nFormat profile                           :   @Main\r\nCodec ID                                 : V_MPEGH/ISO/HEVC\r\nDuration                                 : 48mn 5s\r\nBit rate                                 : 581 Kbps\r\nWidth                                    : 1 280 pixels\r\nHeight                                   : 720 pixels\r\nDisplay aspect ratio                     : 16:9\r\nFrame rate mode                          : Constant\r\nFrame rate                               : 23.976 (24000/1001) fps\r\nColor space                              : YUV\r\nChroma subsampling                       : 4:2:0\r\nBit depth                                : 8 bits\r\nBits/(Pixel*Frame)                       : 0.026\r\nStream size                              : 200 MiB (90%)\r\n\r\n[b]Audio[/b]\r\nID                                       : 2\r\nFormat                                   : AAC\r\nFormat/Info                              : Advanced Audio Codec\r\nFormat profile                           : HE-AAC / LC\r\nCodec ID                                 : A_AAC\r\nDuration                                 : 48mn 5s\r\nBit rate                                 : 66.2 Kbps\r\nChannel(s)                               : 2 channels\r\nChannel positions                        : Front: L R\r\nSampling rate                            : 48.0 KHz / 24.0 KHz\r\nFrame rate                               : 23.438 fps (1024 spf)\r\nCompression mode                         : Lossy\r\nDelay relative to video                  : -105ms\r\nStream size                              : 22.4 MiB (10%)\r\nTitle                                    : Stereo\r\nLanguage                                 : English\r\nDefault                                  : Yes\r\nForced                                   : No\r\n\r\n[b]Text[/b]\r\nID                                       : 3\r\nFormat                                   : UTF-8\r\nCodec ID                                 : S_TEXT/UTF8\r\nCodec ID/Info                            : UTF-8 Plain Text\r\nDuration                                 : 46mn 44s\r\nBit rate                                 : 76 bps\r\nCount of elements                        : 746\r\nStream size                              : 26.1 KiB (0%)\r\nDefault                                  : Yes\r\nForced                                   : No\r\n \nhttp://i.imgur.com/CDxQUyb.png \nhttp://i.imgur.com/yLa7NEA.png \nhttp://i.imgur.com/rR87xLi.png\r\n \nhttp://i.imgur.com/1fje94Z.png\r\n\r\nSeed Atleast 545 Mb To Aid The Files For Future Downloads Also\r\nIf You Like Our Work For You, Appreciate Us By Writing A Comment","torrent":{"xt":"urn:btih:9b13065a46e1c0034a9f3954c139fe71f16ceaba","amp;dn":"Daredevil+Season+2+%28S02%29+Complete+HEVC+720p+Download","amp;tr":["udp%3A%2F%2Ftracker.leechers-paradise.org%3A6969","udp%3A%2F%2Fzer0day.ch%3A1337","udp%3A%2F%2Fopen.demonii.com%3A1337","udp%3A%2F%2Ftracker.coppersurfer.tk%3A6969","udp%3A%2F%2Fexodus.desync.com%3A6969"],"infoHash":"9b13065a46e1c0034a9f3954c139fe71f16ceaba","infoHashBuffer":{"type":"Buffer","data":[155,19,6,90,70,225,192,3,74,159,57,84,193,57,254,113,241,108,234,186]},"announce":[],"urlList":[]}}